<svg width="133" height="27" viewBox="0 0 133 27" fill="none" xmlns="http://www.w3.org/2000/svg">
<g id="Group">
<path id="Vector" d="M16.4051 10.1153L13.2715 0L10.1381 10.1153H0L8.20257 16.3666L5.0692 26.4833L13.2715 20.2293L21.4741 26.4833L18.3407 16.3666L26.5433 10.1153H16.4051Z" fill="#F4DEB9"/>
<path id="Vector_2" d="M43.0193 10.1153L39.8859 0L36.7523 10.1153H26.6141L34.8167 16.3666L31.6833 26.4833L39.8859 20.2293L48.0885 26.4833L44.9548 16.3666L53.1574 10.1153H43.0193Z" fill="#F4DEB9"/>
<path id="Vector_3" d="M69.6334 10.1153L66.5 0L63.3667 10.1153H53.2283L61.4308 16.3666L58.2975 26.4833L66.5 20.2293L74.7026 26.4833L71.5692 16.3666L79.7715 10.1153H69.6334Z" fill="#F4DEB9"/>
<path id="Vector_4" d="M96.2475 10.1153L93.1141 0L89.9808 10.1153H79.8427L88.0452 16.3666L84.9116 26.4833L93.1141 20.2293L101.317 26.4833L98.1833 16.3666L106.386 10.1153H96.2475Z" fill="#F4DEB9"/>
<path id="Vector_5" d="M119.728 0L116.595 10.1153H106.457L114.659 16.3666L111.526 26.4833L119.728 20.2293L127.931 26.4833L124.797 16.3666L133 10.1153H122.862L119.728 0Z" fill="#F4DEB9"/>
</g>
</svg>
