<svg width="133" height="27" viewBox="0 0 133 27" fill="none" xmlns="http://www.w3.org/2000/svg">
<g id="Group">
<path id="Vector" d="M16.4051 10.1153L13.2715 0L10.1381 10.1153H0L8.20257 16.3666L5.0692 26.4833L13.2715 20.2293L21.4741 26.4833L18.3407 16.3666L26.5433 10.1153H16.4051Z" fill="#F4DEB9"/>
<path id="Vector_2" d="M43.0193 10.1153L39.8859 0L36.7523 10.1153H26.6141L34.8167 16.3666L31.6833 26.4833L39.8859 20.2293L48.0885 26.4833L44.9548 16.3666L53.1574 10.1153H43.0193Z" fill="#F4DEB9"/>
<path id="Vector_3" d="M69.6334 10.1153L66.5001 0L63.3667 10.1153H53.2283L61.4309 16.3666L58.2975 26.4833L66.5001 20.2293L74.7026 26.4833L71.5692 16.3666L79.7715 10.1153H69.6334Z" fill="#F4DEB9"/>
<path id="Vector_4" d="M96.2475 10.1153L93.1141 0L89.9808 10.1153H79.8426L88.0452 16.3666L84.9116 26.4833L93.1141 20.2293L101.317 26.4833L98.1833 16.3666L106.386 10.1153H96.2475Z" fill="#F4DEB9"/>
<path id="Vector_5" d="M116.595 10.6153H116.963L117.072 10.2633L119.728 1.68973L122.384 10.2633L122.493 10.6153H122.862H131.519L124.494 15.9689L124.216 16.1807L124.32 16.5145L126.991 25.1377L120.032 19.8317L119.729 19.6005L119.425 19.8317L112.466 25.1377L115.137 16.5145L115.24 16.1807L114.962 15.9689L107.938 10.6153H116.595Z" stroke="#F4DEB9"/>
</g>
</svg>
