<svg width="72" height="15" viewBox="0 0 72 15" fill="none" xmlns="http://www.w3.org/2000/svg">
<g id="Group">
<path id="Vector" d="M8.76172 5.40243L7.08809 0L5.41461 5.40243H0L4.38086 8.74113L2.70738 14.1443L7.08809 10.8041L11.4689 14.1443L9.79547 8.74113L14.1763 5.40243H8.76172Z" fill="black"/>
<path id="Vector_2" d="M22.9759 5.40243L21.3024 0L19.6288 5.40243H14.2142L18.595 8.74113L16.9215 14.1443L21.3024 10.8041L25.6832 14.1443L24.0096 8.74113L28.3905 5.40243H22.9759Z" fill="black"/>
<path id="Vector_3" d="M37.19 5.40243L35.5166 0L33.8431 5.40243H28.4283L32.8092 8.74113L31.1357 14.1443L35.5166 10.8041L39.8974 14.1443L38.2239 8.74113L42.6046 5.40243H37.19Z" fill="black"/>
<path id="Vector_4" d="M51.4042 5.40243L49.7307 0L48.0572 5.40243H42.6426L47.0235 8.74113L45.3499 14.1443L49.7307 10.8041L54.1116 14.1443L52.4381 8.74113L56.8189 5.40243H51.4042Z" fill="black"/>
<path id="Vector_5" d="M63.945 0L62.2714 5.40243H56.8568L61.2376 8.74113L59.5642 14.1443L63.945 10.8041L68.3257 14.1443L66.6522 8.74113L71.0331 5.40243H65.6185L63.945 0Z" fill="black"/>
</g>
</svg>
